# xmcd
# Track frame offsets:
# 150
# 15609
# 33296
# 58651
# 77617
# 101322
# 120150
# 140996
# 157881
#
# Disc length: 2331 seconds
# Revision: 0
# Processed by: cddbd v1.5.2PL0 Copyright (c) Steve Scherf et al.
# Submitted via: VisiTrax 2.10.3.257 - For more info visit www.synapsa.com
#
DISCID=63091909
DTITLE=Billy Watson and The Internation Silver String Submarine Band - Blowin
DTITLE=g Crow
DYEAR=2007
DGENRE=Blues
TTITLE0=Ya Done Me Wrong
TTITLE1=I Found Out
TTITLE2=There's A Thug In Town
TTITLE3=His Name Was Earnie
TTITLE4=Almost Paradise
TTITLE5=Playhouse
TTITLE6=Sargasso Sea
TTITLE7=Sound Advice
TTITLE8=The Raucous
EXTD=www.billywatson.com
EXTT0=
EXTT1=
EXTT2=
EXTT3=
EXTT4=
EXTT5=
EXTT6=
EXTT7=
EXTT8=
PLAYORDER=
